<?xml version="1.0" encoding="UTF-8"?> <svg xmlns="http://www.w3.org/2000/svg" viewBox="0 0 26.152 26.153"><defs><style>.cls-1{fill:#444b55;}.cls-2{fill:#fff;}</style></defs><title>Linkedin</title><g id="Layer_2" data-name="Layer 2"><g id="Layer_1-2" data-name="Layer 1"><path class="cls-1" d="M24.218,0H1.929A1.908,1.908,0,0,0,0,1.886v22.38a1.91,1.91,0,0,0,1.929,1.887H24.218a1.913,1.913,0,0,0,1.934-1.887V1.886A1.912,1.912,0,0,0,24.218,0Z"></path><path class="cls-2" d="M3.875,9.805H7.758v12.48H3.875ZM5.817,3.6a2.25,2.25,0,1,1-2.25,2.25A2.251,2.251,0,0,1,5.817,3.6"></path><path class="cls-2" d="M10.191,9.805h3.718v1.706h.054a4.075,4.075,0,0,1,3.67-2.016c3.927,0,4.653,2.584,4.653,5.945v6.845H18.407V16.216c0-1.447-.024-3.309-2.015-3.309-2.019,0-2.326,1.577-2.326,3.2v6.173H10.191Z"></path></g></g></svg> 